<svg width="164" height="104" viewBox="0 0 164 104" fill="none" xmlns="http://www.w3.org/2000/svg">
<path d="M54.153 1.83557C69.8696 -1.60747 87.5423 5.72769 95.9739 21.2962C106.227 13.8113 121.066 15.0838 129.835 25.0386C133.41 29.0056 135.771 34.3199 136.311 40.0083C146.159 41.3556 155.602 47.7926 160.392 57.6726C164.439 65.906 164.641 76.3848 160.729 84.7678C155.333 96.519 143.596 103.63 131.859 103.63H32.7029C21.2359 103.63 9.43163 96.7436 4.03539 85.2169C-0.0117961 76.9835 -0.0117961 66.5047 4.03539 58.1217C7.88021 49.589 15.5024 43.4514 23.5968 40.9065C23.5968 34.3199 24.9458 27.7332 27.9138 22.0447C33.31 11.3413 43.428 4.08103 54.0856 1.83557H54.153ZM110.409 52.9572C105.957 54.6038 102.652 59.3941 102.584 64.7084C98.807 66.2054 95.3668 69.7232 95.3668 74.4387C95.1645 80.4266 100.358 84.9175 105.485 84.9175H137.188C139.549 84.9175 141.909 84.3187 143.933 82.672C147.306 80.4266 148.925 75.4866 147.441 71.4447C146.226 67.4778 142.719 65.2323 139.346 64.409C138.672 62.3881 137.997 60.2175 136.311 58.945C133.41 56.4002 129.296 56.4002 126.193 58.3462C122.82 52.8075 116.075 50.4871 110.409 52.8823V52.9572Z" fill="#E4E3E3" stroke="#E4E3E3" stroke-width="0.1"/>
<path d="M109.494 51.994C115.259 49.4989 122.204 51.8428 125.677 57.4379C128.941 55.472 133.178 55.472 136.095 58.0428C137.9 59.3281 138.595 61.5208 139.29 63.5623C142.762 64.3184 146.374 66.5867 147.624 70.594C149.152 74.6769 147.416 79.6671 144.012 81.9354C141.929 83.5988 139.498 84.2037 137.067 84.2037H104.424C99.1454 84.2037 93.7975 79.6671 94.0059 73.6184C94.0059 68.8549 97.4786 65.3013 101.507 63.7891C101.507 58.4964 104.98 53.5818 109.494 51.8428V51.994Z" fill="#ACA6A6" stroke="#ACA6A6" stroke-width="0.1"/>
</svg>
